<svg xmlns="http://www.w3.org/2000/svg" xmlns:xlink="http://www.w3.org/1999/xlink" version="1.1" viewBox="0 0 3008 1980" style="background: #ffffff"><defs><style>@import url(https://fonts.googleapis.com/css?family=Open+Sans:400,700);</style></defs><defs joint-selector="defs"></defs><g  joint-selector="layers" transform="matrix(1,0,0,1,0,0)"><g ></g><g ><!--z-index:0--><!--z-index:1--><!--z-index:2--><!--z-index:3--><!--z-index:4--><!--z-index:5--><!--z-index:6--><!--z-index:7--><!--z-index:8--><!--z-index:9--><!--z-index:10--><!--z-index:11--><!--z-index:12--><!--z-index:13--><!--z-index:14--><!--z-index:15--><!--z-index:16--><!--z-index:17--><!--z-index:18--><g   id="j_68"  transform="translate(20,1943.6)"><g id="v-1787"><text  id="v-1788" font-size="22px" xml:space="preserve" y="0.8em" font-weight="normal" text-anchor="start" fill="#aaaaaa" pointer-events="none" display="block" font-family="Open Sans"><tspan  dy="0" display="block">Monday, February 17, 2025 at 5:29 PM Central European Standard Time</tspan></text></g></g><!--z-index:19--><g   id="j_67"  transform="translate(20,1900.3999999999999)"><g id="v-1785"><text  id="v-1786" font-size="36px" xml:space="preserve" y="0.8em" font-weight="normal" text-anchor="start" fill="#000000" pointer-events="none" display="block" font-family="Open Sans"><tspan  dy="0" display="block">[System Context] Certifiable Inc. Existing Software System</tspan></text></g></g><!--z-index:20--><g   id="j_69"  transform="translate(120,25)" style=""><g  id="v-1795" style="opacity: 1;"><rect  x="0" y="160" width="400" height="240" rx="70" id="v-1797" stroke="#983a5a" stroke-width="2" pointer-events="visiblePainted" fill="#a94064" style="fill: rgb(169, 64, 100); stroke: rgb(152, 58, 90);"></rect><circle  cx="200" cy="88.88888888888889" r="88.88888888888889" id="v-1796" stroke="#983a5a" stroke-width="2" pointer-events="visiblePainted" fill="#a94064" style="fill: rgb(169, 64, 100); stroke: rgb(152, 58, 90);"></circle><line  x1="80" y1="266.6666666666667" x2="80" y2="400" id="v-1803" stroke="#983a5a" stroke-width="2" style="stroke: rgb(152, 58, 90);"></line><line  x1="320" y1="266.6666666666667" x2="320" y2="400" id="v-1804" stroke="#983a5a" stroke-width="2" style="stroke: rgb(152, 58, 90);"></line><text  id="v-1798" font-size="32" xml:space="preserve" y="0.8em" font-weight="bold" text-anchor="middle" pointer-events="visible" font-family="Open Sans" fill="#ffffff" transform="matrix(1,0,0,1,200,209.6999969482422)" style="fill: rgb(255, 255, 255);"><tspan  dy="0">Certification Candidate</tspan></text><text  id="v-1799" font-size="15" xml:space="preserve" y="0.8em" text-anchor="middle" font-family="Open Sans" fill="#ffffff" transform="matrix(1,0,0,1,200,248.10000610351562)" style="fill: rgb(255, 255, 255);"><tspan  dy="0">[Person]</tspan></text><text  id="v-1800" font-size="22" xml:space="preserve" y="0.8em" text-anchor="middle" font-family="Open Sans" fill="#ffffff" transform="matrix(1,0,0,1,200,276.1000061035156)" style="fill: rgb(255, 255, 255);"><tspan  dy="0">A candidate that is aiming to get</tspan><tspan dy="1.2em" x="0" >professionally certified by</tspan><tspan dy="1.2em" x="0" >Cerfifiable Inc..</tspan></text><g  id="v-1801" font-weight="normal" text-anchor="middle" color="#ffffff" transform="matrix(1,0,0,1,197.5,368)" style="fill: rgb(255, 255, 255);" display="none"><g ></g><g ></g><g ></g><g ></g></g><image  id="v-1802"></image></g></g><!--z-index:21--><g   id="j_70"  transform="translate(781,30)" style=""><g  id="v-1808" style="opacity: 1;"><rect  x="0" y="160" width="400" height="240" rx="70" id="v-1810" stroke="#d00044" stroke-width="2" pointer-events="visiblePainted" fill="#e7004c" style="fill: rgb(231, 0, 76); stroke: rgb(208, 0, 68);"></rect><circle  cx="200" cy="88.88888888888889" r="88.88888888888889" id="v-1809" stroke="#d00044" stroke-width="2" pointer-events="visiblePainted" fill="#e7004c" style="fill: rgb(231, 0, 76); stroke: rgb(208, 0, 68);"></circle><line  x1="80" y1="266.6666666666667" x2="80" y2="400" id="v-1816" stroke="#d00044" stroke-width="2" style="stroke: rgb(208, 0, 68);"></line><line  x1="320" y1="266.6666666666667" x2="320" y2="400" id="v-1817" stroke="#d00044" stroke-width="2" style="stroke: rgb(208, 0, 68);"></line><text  id="v-1811" font-size="32" xml:space="preserve" y="0.8em" font-weight="bold" text-anchor="middle" pointer-events="visible" font-family="Open Sans" fill="#ffffff" transform="matrix(1,0,0,1,200,222.89999389648438)" style="fill: rgb(255, 255, 255);"><tspan  dy="0">IT Expert</tspan></text><text  id="v-1812" font-size="15" xml:space="preserve" y="0.8em" text-anchor="middle" font-family="Open Sans" fill="#ffffff" transform="matrix(1,0,0,1,200,261.29998779296875)" style="fill: rgb(255, 255, 255);"><tspan  dy="0">[Person]</tspan></text><text  id="v-1813" font-size="22" xml:space="preserve" y="0.8em" text-anchor="middle" font-family="Open Sans" fill="#ffffff" transform="matrix(1,0,0,1,200,289.29998779296875)" style="fill: rgb(255, 255, 255);"><tspan  dy="0">IT Expert Grader, working for</tspan><tspan dy="1.2em" x="0" >Certifiable Inc.</tspan></text><g  id="v-1814" font-weight="normal" text-anchor="middle" color="#ffffff" transform="matrix(1,0,0,1,197.5,368)" style="fill: rgb(255, 255, 255);" display="none"><g ></g><g ></g><g ></g><g ></g></g><image  id="v-1815"></image></g></g><!--z-index:22--><g   id="j_71"  transform="translate(1405,35)" style=""><g  id="v-1821" style="opacity: 1;"><rect  x="0" y="160" width="400" height="240" rx="70" id="v-1823" stroke="#d00044" stroke-width="2" pointer-events="visiblePainted" fill="#e7004c" style="fill: rgb(231, 0, 76); stroke: rgb(208, 0, 68);"></rect><circle  cx="200" cy="88.88888888888889" r="88.88888888888889" id="v-1822" stroke="#d00044" stroke-width="2" pointer-events="visiblePainted" fill="#e7004c" style="fill: rgb(231, 0, 76); stroke: rgb(208, 0, 68);"></circle><line  x1="80" y1="266.6666666666667" x2="80" y2="400" id="v-1829" stroke="#d00044" stroke-width="2" style="stroke: rgb(208, 0, 68);"></line><line  x1="320" y1="266.6666666666667" x2="320" y2="400" id="v-1830" stroke="#d00044" stroke-width="2" style="stroke: rgb(208, 0, 68);"></line><text  id="v-1824" font-size="32" xml:space="preserve" y="0.8em" font-weight="bold" text-anchor="middle" pointer-events="visible" font-family="Open Sans" fill="#ffffff" transform="matrix(1,0,0,1,200,222.89999389648438)" style="fill: rgb(255, 255, 255);"><tspan  dy="0">ML Engineer</tspan></text><text  id="v-1825" font-size="15" xml:space="preserve" y="0.8em" text-anchor="middle" font-family="Open Sans" fill="#ffffff" transform="matrix(1,0,0,1,200,261.29998779296875)" style="fill: rgb(255, 255, 255);"><tspan  dy="0">[Person]</tspan></text><text  id="v-1826" font-size="22" xml:space="preserve" y="0.8em" text-anchor="middle" font-family="Open Sans" fill="#ffffff" transform="matrix(1,0,0,1,200,289.29998779296875)" style="fill: rgb(255, 255, 255);"><tspan  dy="0">AI Engineer, working for Certifiable</tspan><tspan dy="1.2em" x="0" >Inc.</tspan></text><g  id="v-1827" font-weight="normal" text-anchor="middle" color="#ffffff" transform="matrix(1,0,0,1,197.5,368)" style="fill: rgb(255, 255, 255);" display="none"><g ></g><g ></g><g ></g><g ></g></g><image  id="v-1828"></image></g></g><!--z-index:23--><g   id="j_72"  transform="translate(125,855)" style=""><g  id="v-1834" style="opacity: 1;"><rect  id="v-1835" rx="1" ry="1" stroke="#005b91" stroke-width="2" pointer-events="visiblePainted" fill="#0065a1" width="450" height="300" style="fill: rgb(0, 101, 161); stroke: rgb(0, 91, 145);"></rect><text  id="v-1836" font-size="34" xml:space="preserve" y="0.8em" font-weight="bold" text-anchor="middle" pointer-events="visible" font-family="Open Sans" fill="#ffffff" transform="matrix(1,0,0,1,225,101.5)" style="fill: rgb(255, 255, 255);"><tspan  dy="0">Certifiable Inc. Existing</tspan><tspan dy="1.2em" x="0" >Software System</tspan></text><text  id="v-1837" font-size="17" xml:space="preserve" y="0.8em" text-anchor="middle" font-family="Open Sans" fill="#ffffff" transform="matrix(1,0,0,1,225,183.10000610351562)" style="fill: rgb(255, 255, 255);"><tspan  dy="0">[Software System]</tspan></text><text  id="v-1838" font-size="24" xml:space="preserve" display="none" y="0.8em" text-anchor="middle" font-family="Open Sans" fill="#ffffff" transform="matrix(1,0,0,1,225,203.5)" style="fill: rgb(255, 255, 255);"><tspan style="fill-opacity: 0; stroke-opacity: 0;"  dy="0">-</tspan></text><g  id="v-1839" color="#ffffff" transform="matrix(1,0,0,1,222.5,268)" style="fill: rgb(255, 255, 255);" display="none"><g ></g><g ></g><g ></g><g ></g></g><image  id="v-1840"></image></g></g><!--z-index:24--><g   id="j_73"  transform="translate(1391,875)" style=""><g  id="v-1844" style="opacity: 1;"><rect  id="v-1845" rx="1" ry="1" stroke="#005b91" stroke-width="2" pointer-events="visiblePainted" fill="#0065a1" width="450" height="300" style="fill: rgb(0, 101, 161); stroke: rgb(0, 91, 145);"></rect><text  id="v-1846" font-size="34" xml:space="preserve" y="0.8em" font-weight="bold" text-anchor="middle" pointer-events="visible" font-family="Open Sans" fill="#ffffff" transform="matrix(1,0,0,1,225,101.5)" style="fill: rgb(255, 255, 255);"><tspan  dy="0">ARCHIFY AI Certification</tspan><tspan dy="1.2em" x="0" >Systems</tspan></text><text  id="v-1847" font-size="17" xml:space="preserve" y="0.8em" text-anchor="middle" font-family="Open Sans" fill="#ffffff" transform="matrix(1,0,0,1,225,183.10000610351562)" style="fill: rgb(255, 255, 255);"><tspan  dy="0">[Software System]</tspan></text><text  id="v-1848" font-size="24" xml:space="preserve" display="none" y="0.8em" text-anchor="middle" font-family="Open Sans" fill="#ffffff" transform="matrix(1,0,0,1,225,203.5)" style="fill: rgb(255, 255, 255);"><tspan style="fill-opacity: 0; stroke-opacity: 0;"  dy="0">-</tspan></text><g  id="v-1849" color="#ffffff" transform="matrix(1,0,0,1,222.5,268)" style="fill: rgb(255, 255, 255);" display="none"><g ></g><g ></g><g ></g><g ></g></g><image  id="v-1850"></image></g></g><!--z-index:25--><g   id="j_74"  transform="translate(696,1585)" style=""><g  id="v-1854" style="opacity: 1;"><rect  id="v-1855" rx="1" ry="1" stroke="#005b91" stroke-width="2" pointer-events="visiblePainted" fill="#0065a1" width="450" height="300" style="fill: rgb(0, 101, 161); stroke: rgb(0, 91, 145);"></rect><text  id="v-1856" font-size="34" xml:space="preserve" y="0.8em" font-weight="bold" text-anchor="middle" pointer-events="visible" font-family="Open Sans" fill="#ffffff" transform="matrix(1,0,0,1,225,101.5)" style="fill: rgb(255, 255, 255);"><tspan  dy="0">Context Data</tspan><tspan dy="1.2em" x="0" >Pre-Processing</tspan></text><text  id="v-1857" font-size="17" xml:space="preserve" y="0.8em" text-anchor="middle" font-family="Open Sans" fill="#ffffff" transform="matrix(1,0,0,1,225,183.10000610351562)" style="fill: rgb(255, 255, 255);"><tspan  dy="0">[Software System]</tspan></text><text  id="v-1858" font-size="24" xml:space="preserve" display="none" y="0.8em" text-anchor="middle" font-family="Open Sans" fill="#ffffff" transform="matrix(1,0,0,1,225,203.5)" style="fill: rgb(255, 255, 255);"><tspan style="fill-opacity: 0; stroke-opacity: 0;"  dy="0">-</tspan></text><g  id="v-1859" color="#ffffff" transform="matrix(1,0,0,1,222.5,268)" style="fill: rgb(255, 255, 255);" display="none"><g ></g><g ></g><g ></g><g ></g></g><image  id="v-1860"></image></g></g><!--z-index:26--><g   id="j_75"  transform="translate(2451,850)" style=""><g  id="v-1861" style="opacity: 1;"><rect  id="v-1862" rx="1" ry="1" stroke="#005b91" stroke-width="2" pointer-events="visiblePainted" fill="#0065a1" width="450" height="300" style="fill: rgb(0, 101, 161); stroke: rgb(0, 91, 145);"></rect><text  id="v-1863" font-size="34" xml:space="preserve" y="0.8em" font-weight="bold" text-anchor="middle" pointer-events="visible" font-family="Open Sans" fill="#ffffff" transform="matrix(1,0,0,1,225,121.9000015258789)" style="fill: rgb(255, 255, 255);"><tspan  dy="0">LLM Model</tspan></text><text  id="v-1864" font-size="17" xml:space="preserve" y="0.8em" text-anchor="middle" font-family="Open Sans" fill="#ffffff" transform="matrix(1,0,0,1,225,162.6999969482422)" style="fill: rgb(255, 255, 255);"><tspan  dy="0">[Software System]</tspan></text><text  id="v-1865" font-size="24" xml:space="preserve" display="none" y="0.8em" text-anchor="middle" font-family="Open Sans" fill="#ffffff" transform="matrix(1,0,0,1,225,183.10000610351562)" style="fill: rgb(255, 255, 255);"><tspan style="fill-opacity: 0; stroke-opacity: 0;"  dy="0">-</tspan></text><g  id="v-1866" color="#ffffff" transform="matrix(1,0,0,1,222.5,268)" style="fill: rgb(255, 255, 255);" display="none"><g ></g><g ></g><g ></g><g ></g></g><image  id="v-1867"></image></g></g><!--z-index:27--><g   id="j_76" ><path  stroke="#707070" d="M 328 425 L 344 855" id="v-1880" stroke-width="2" stroke-dasharray="30 30" fill="none" style="opacity: 1;"></path><path  fill="black" stroke="black" d="M 0 0 0 0" transform="matrix(0.03843672201037407,0.9992610216140747,-0.9992610216140747,0.03843672201037407,327.69000244140625,425)"></path><path  fill="#707070" stroke="#707070" d="M 20 0 L 0 10 L 20 20 z" id="v-1882" transform="matrix(-0.03843645751476288,-0.9992610216140747,0.9992610216140747,-0.03843645751476288,334.2373962402344,855.3843383789062)" style="opacity: 1;"></path><path  d="M 328 425 L 344 855" id="v-1881" fill="none" style="cursor: default;"></path><g ><g id="v-1874"  label-idx="0" cursor="move" transform="matrix(1,0,0,1,336,640)" style="cursor: default; opacity: 1;"><rect joint-selector="rect" id="v-1877" fill="#ffffff" rx="3" ry="3" pointer-events="none" width="205.3091583251953" height="177.9354019165039" transform="matrix(1,0,0,1,-102.69999694824219,-89)"></rect><text joint-selector="text" id="v-1876" font-size="24px" xml:space="preserve" y="0.8em" fill="#707070" text-anchor="middle" pointer-events="none" font-family="Open Sans" font-weight="normal" transform="matrix(1,0,0,1,0,-82.0999984741211)"><tspan  dy="0">Takes aptitude</tspan><tspan dy="1.2em" x="0" >certification</tspan><tspan dy="1.2em" x="0" >exam, consisting</tspan><tspan dy="1.2em" x="0" >of multiple-choice</tspan><tspan dy="1.2em" x="0" >and short-answer</tspan><tspan dy="1.2em" x="0" >tests</tspan></text></g><g id="v-1875"  label-idx="1" cursor="move" transform="matrix(1,0,0,1,326,738.4000244140625)" style="cursor: default; opacity: 1;"><rect joint-selector="rect" id="v-1879" fill="#ffffff" rx="3" ry="3"  width="0" height="0" transform="matrix(1,0,0,1,0,0)" display="none"></rect><text joint-selector="text" id="v-1878" fill="#000000" font-size="14" text-anchor="middle" pointer-events="none"></text></g></g><g  display="none"></g><g  id="v-1884" display="none"><g  id="v-1872"><path  end="source" d="M 26 0 L 0 13 L 26 26 z"></path></g><g  id="v-1873"><path  end="target" d="M 26 0 L 0 13 L 26 26 z"></path></g></g><g  id="v-1883" display="none"><g  id="v-1871" transform="translate(329.48734281217537, 464.97233807721375) "><g  event="remove"><circle r="11"></circle><path transform="scale(.8) translate(-16, -16)" d="M24.778,21.419 19.276,15.917 24.777,10.415 21.949,7.585 16.447,13.087 10.945,7.585 8.117,10.415 13.618,15.917 8.116,21.419 10.946,24.248 16.447,18.746 21.948,24.248z"></path><title>Remove link.</title></g><g  event="link:options"><circle r="11" transform="translate(25)"></circle><path fill="white" transform="scale(.55) translate(29, -16)" d="M31.229,17.736c0.064-0.571,0.104-1.148,0.104-1.736s-0.04-1.166-0.104-1.737l-4.377-1.557c-0.218-0.716-0.504-1.401-0.851-2.05l1.993-4.192c-0.725-0.91-1.549-1.734-2.458-2.459l-4.193,1.994c-0.647-0.347-1.334-0.632-2.049-0.849l-1.558-4.378C17.165,0.708,16.588,0.667,16,0.667s-1.166,0.041-1.737,0.105L12.707,5.15c-0.716,0.217-1.401,0.502-2.05,0.849L6.464,4.005C5.554,4.73,4.73,5.554,4.005,6.464l1.994,4.192c-0.347,0.648-0.632,1.334-0.849,2.05l-4.378,1.557C0.708,14.834,0.667,15.412,0.667,16s0.041,1.165,0.105,1.736l4.378,1.558c0.217,0.715,0.502,1.401,0.849,2.049l-1.994,4.193c0.725,0.909,1.549,1.733,2.459,2.458l4.192-1.993c0.648,0.347,1.334,0.633,2.05,0.851l1.557,4.377c0.571,0.064,1.148,0.104,1.737,0.104c0.588,0,1.165-0.04,1.736-0.104l1.558-4.377c0.715-0.218,1.399-0.504,2.049-0.851l4.193,1.993c0.909-0.725,1.733-1.549,2.458-2.458l-1.993-4.193c0.347-0.647,0.633-1.334,0.851-2.049L31.229,17.736zM16,20.871c-2.69,0-4.872-2.182-4.872-4.871c0-2.69,2.182-4.872,4.872-4.872c2.689,0,4.871,2.182,4.871,4.872C20.871,18.689,18.689,20.871,16,20.871z"></path><title>Link options.</title></g></g></g></g><!--z-index:28--><g   id="j_77" ><path  stroke="#707070" d="M 818 430 L 472 855" id="v-1897" stroke-width="2" stroke-dasharray="30 30" fill="none" style="opacity: 1;"></path><path  fill="black" stroke="black" d="M 0 0 0 0" transform="matrix(-0.6313807964324951,0.7754729390144348,-0.7754729390144348,-0.6313807964324951,818.1599731445312,430)"></path><path  fill="#707070" stroke="#707070" d="M 20 0 L 0 10 L 20 20 z" id="v-1899" transform="matrix(0.6313807964324951,-0.7754729390144348,0.7754729390144348,0.6313807964324951,464.3752746582031,848.6862182617188)" style="opacity: 1;"></path><path  d="M 818 430 L 472 855" id="v-1898" fill="none" style="cursor: default;"></path><g ><g id="v-1891"  label-idx="0" cursor="move" transform="matrix(1,0,0,1,645,642.5)" style="cursor: default; opacity: 1;"><rect joint-selector="rect" id="v-1894" fill="#ffffff" rx="3" ry="3" pointer-events="none" width="196.2597198486328" height="177.9354019165039" transform="matrix(1,0,0,1,-98.0999984741211,-89)"></rect><text joint-selector="text" id="v-1893" font-size="24px" xml:space="preserve" y="0.8em" fill="#707070" text-anchor="middle" pointer-events="none" font-family="Open Sans" font-weight="normal" transform="matrix(1,0,0,1,0,-82.0999984741211)"><tspan  dy="0">Grades</tspan><tspan dy="1.2em" x="0" >short-answer</tspan><tspan dy="1.2em" x="0" >tests, provides</tspan><tspan dy="1.2em" x="0" >feedback.</tspan><tspan dy="1.2em" x="0" >Analyses</tspan><tspan dy="1.2em" x="0" >question catalog.</tspan></text></g><g id="v-1892"  label-idx="1" cursor="move" transform="matrix(1,0,0,1,635,740.9000244140625)" style="cursor: default; opacity: 1;"><rect joint-selector="rect" id="v-1896" fill="#ffffff" rx="3" ry="3"  width="0" height="0" transform="matrix(1,0,0,1,0,0)" display="none"></rect><text joint-selector="text" id="v-1895" fill="#000000" font-size="14" text-anchor="middle" pointer-events="none"></text></g></g><g  display="none"></g><g  id="v-1901" display="none"><g  id="v-1889"><path  end="source" d="M 26 0 L 0 13 L 26 26 z"></path></g><g  id="v-1890"><path  end="target" d="M 26 0 L 0 13 L 26 26 z"></path></g></g><g  id="v-1900" display="none"><g  id="v-1888" transform="translate(792.7460812480258, 461.0199869063268) "><g  event="remove"><circle r="11"></circle><path transform="scale(.8) translate(-16, -16)" d="M24.778,21.419 19.276,15.917 24.777,10.415 21.949,7.585 16.447,13.087 10.945,7.585 8.117,10.415 13.618,15.917 8.116,21.419 10.946,24.248 16.447,18.746 21.948,24.248z"></path><title>Remove link.</title></g><g  event="link:options"><circle r="11" transform="translate(25)"></circle><path fill="white" transform="scale(.55) translate(29, -16)" d="M31.229,17.736c0.064-0.571,0.104-1.148,0.104-1.736s-0.04-1.166-0.104-1.737l-4.377-1.557c-0.218-0.716-0.504-1.401-0.851-2.05l1.993-4.192c-0.725-0.91-1.549-1.734-2.458-2.459l-4.193,1.994c-0.647-0.347-1.334-0.632-2.049-0.849l-1.558-4.378C17.165,0.708,16.588,0.667,16,0.667s-1.166,0.041-1.737,0.105L12.707,5.15c-0.716,0.217-1.401,0.502-2.05,0.849L6.464,4.005C5.554,4.73,4.73,5.554,4.005,6.464l1.994,4.192c-0.347,0.648-0.632,1.334-0.849,2.05l-4.378,1.557C0.708,14.834,0.667,15.412,0.667,16s0.041,1.165,0.105,1.736l4.378,1.558c0.217,0.715,0.502,1.401,0.849,2.049l-1.994,4.193c0.725,0.909,1.549,1.733,2.459,2.458l4.192-1.993c0.648,0.347,1.334,0.633,2.05,0.851l1.557,4.377c0.571,0.064,1.148,0.104,1.737,0.104c0.588,0,1.165-0.04,1.736-0.104l1.558-4.377c0.715-0.218,1.399-0.504,2.049-0.851l4.193,1.993c0.909-0.725,1.733-1.549,2.458-2.458l-1.993-4.193c0.347-0.647,0.633-1.334,0.851-2.049L31.229,17.736zM16,20.871c-2.69,0-4.872-2.182-4.872-4.871c0-2.69,2.182-4.872,4.872-4.872c2.689,0,4.871,2.182,4.871,4.872C20.871,18.689,18.689,20.871,16,20.871z"></path><title>Link options.</title></g></g></g></g><!--z-index:29--><g   id="j_78" ><path  stroke="#707070" d="M 1604 435 L 1604 597 C 1604 603.6666666666666 1604 610.3333333333333 1604 617 L 1612 875" id="v-1915" stroke-width="2" stroke-dasharray="30 30" fill="none" style="opacity: 1;"></path><path  fill="black" stroke="black" d="M 0 0 0 0" transform="matrix(-0.002674343064427376,0.9999964237213135,-0.9999964237213135,-0.002674343064427376,1604.4599609375,435)"></path><path  fill="#707070" stroke="#707070" d="M 20 0 L 0 10 L 20 20 z" id="v-1917" transform="matrix(-0.0286820400506258,-0.9995886087417603,0.9995886087417603,-0.0286820400506258,1601.694091796875,875.2868041992188)" style="opacity: 1;"></path><path  d="M 1604 435 L 1604 597 C 1604 603.6666666666666 1604 610.3333333333333 1604 617 L 1612 875" id="v-1916" fill="none" style="cursor: default;"></path><g ><g id="v-1909"  label-idx="0" cursor="move" transform="matrix(1,0,0,1,1605.1796875,655.043701171875)" style="cursor: default; opacity: 1;"><rect joint-selector="rect" id="v-1912" fill="#ffffff" rx="3" ry="3" pointer-events="none" width="197.60842895507812" height="293.1354217529297" transform="matrix(1,0,0,1,-98.80000305175781,-146.60000610351562)"></rect><text joint-selector="text" id="v-1911" font-size="24px" xml:space="preserve" y="0.8em" fill="#707070" text-anchor="middle" pointer-events="none" font-family="Open Sans" font-weight="normal" transform="matrix(1,0,0,1,0,-139.6999969482422)"><tspan  dy="0">Maintains LLM</tspan><tspan dy="1.2em" x="0" >components</tspan><tspan dy="1.2em" x="0" >used for</tspan><tspan dy="1.2em" x="0" >auto-grading,</tspan><tspan dy="1.2em" x="0" >including</tspan><tspan dy="1.2em" x="0" >monitoring,</tspan><tspan dy="1.2em" x="0" >parameter and</tspan><tspan dy="1.2em" x="0" >threshold tuning,</tspan><tspan dy="1.2em" x="0" >updating models</tspan><tspan dy="1.2em" x="0" >etc.</tspan></text></g><g id="v-1910"  label-idx="1" cursor="move" transform="matrix(1,0,0,1,1595.1796875,811.043701171875)" style="cursor: default; opacity: 1;"><rect joint-selector="rect" id="v-1914" fill="#ffffff" rx="3" ry="3"  width="0" height="0" transform="matrix(1,0,0,1,0,0)" display="none"></rect><text joint-selector="text" id="v-1913" fill="#000000" font-size="14" text-anchor="middle" pointer-events="none"></text></g></g><g  display="none"><g  transform="translate(1604, 607)" id="v-1906"><circle  idx="0" r="10"></circle><path  idx="0" d="M16,5.333c-7.732,0-14,4.701-14,10.5c0,1.982,0.741,3.833,2.016,5.414L2,25.667l5.613-1.441c2.339,1.317,5.237,2.107,8.387,2.107c7.732,0,14-4.701,14-10.5C30,10.034,23.732,5.333,16,5.333z" transform="translate(5, -33)"></path><path  idx="0" transform="scale(.8) translate(9.5, -37)" d="M24.778,21.419 19.276,15.917 24.777,10.415 21.949,7.585 16.447,13.087 10.945,7.585 8.117,10.415 13.618,15.917 8.116,21.419 10.946,24.248 16.447,18.746 21.948,24.248z"><title>Remove vertex.</title></path></g></g><g  id="v-1919" display="none"><g  id="v-1907"><path  end="source" d="M 26 0 L 0 13 L 26 26 z"></path></g><g  id="v-1908"><path  end="target" d="M 26 0 L 0 13 L 26 26 z"></path></g></g><g  id="v-1918" display="none"><g  id="v-1905" transform="translate(1604, 475) "><g  event="remove"><circle r="11"></circle><path transform="scale(.8) translate(-16, -16)" d="M24.778,21.419 19.276,15.917 24.777,10.415 21.949,7.585 16.447,13.087 10.945,7.585 8.117,10.415 13.618,15.917 8.116,21.419 10.946,24.248 16.447,18.746 21.948,24.248z"></path><title>Remove link.</title></g><g  event="link:options"><circle r="11" transform="translate(25)"></circle><path fill="white" transform="scale(.55) translate(29, -16)" d="M31.229,17.736c0.064-0.571,0.104-1.148,0.104-1.736s-0.04-1.166-0.104-1.737l-4.377-1.557c-0.218-0.716-0.504-1.401-0.851-2.05l1.993-4.192c-0.725-0.91-1.549-1.734-2.458-2.459l-4.193,1.994c-0.647-0.347-1.334-0.632-2.049-0.849l-1.558-4.378C17.165,0.708,16.588,0.667,16,0.667s-1.166,0.041-1.737,0.105L12.707,5.15c-0.716,0.217-1.401,0.502-2.05,0.849L6.464,4.005C5.554,4.73,4.73,5.554,4.005,6.464l1.994,4.192c-0.347,0.648-0.632,1.334-0.849,2.05l-4.378,1.557C0.708,14.834,0.667,15.412,0.667,16s0.041,1.165,0.105,1.736l4.378,1.558c0.217,0.715,0.502,1.401,0.849,2.049l-1.994,4.193c0.725,0.909,1.549,1.733,2.459,2.458l4.192-1.993c0.648,0.347,1.334,0.633,2.05,0.851l1.557,4.377c0.571,0.064,1.148,0.104,1.737,0.104c0.588,0,1.165-0.04,1.736-0.104l1.558-4.377c0.715-0.218,1.399-0.504,2.049-0.851l4.193,1.993c0.909-0.725,1.733-1.549,2.458-2.458l-1.993-4.193c0.347-0.647,0.633-1.334,0.851-2.049L31.229,17.736zM16,20.871c-2.69,0-4.872-2.182-4.872-4.871c0-2.69,2.182-4.872,4.872-4.872c2.689,0,4.871,2.182,4.871,4.872C20.871,18.689,18.689,20.871,16,20.871z"></path><title>Link options.</title></g></g></g></g><!--z-index:30--><g   id="j_79" ><path  stroke="#707070" d="M 1391 990 L 986 927 C 979.3333333333333 925.6666666666666 972.6666666666666 925.3333333333333 966 926 L 575 976" id="v-1933" stroke-width="2" stroke-dasharray="30 30" fill="none" style="opacity: 1;"></path><path  fill="black" stroke="black" d="M 0 0 0 0" transform="matrix(-0.9880133867263794,-0.15436823666095734,0.15436823666095734,-0.9880133867263794,1391,989.8400268554688)"></path><path  fill="#707070" stroke="#707070" d="M 20 0 L 0 10 L 20 20 z" id="v-1935" transform="matrix(0.9919315576553345,-0.12677434086799622,0.12677434086799622,0.9919315576553345,573.7322387695312,966.3306884765625)" style="opacity: 1;"></path><path  d="M 1391 990 L 986 927 C 979.3333333333333 925.6666666666666 972.6666666666666 925.3333333333333 966 926 L 575 976" id="v-1934" fill="none" style="cursor: default;"></path><g ><g id="v-1927"  label-idx="0" cursor="move" transform="matrix(1,0,0,1,983.8125,926.598388671875)" style="cursor: default; opacity: 1;"><rect joint-selector="rect" id="v-1930" fill="#ffffff" rx="3" ry="3" pointer-events="none" width="181.72840881347656" height="177.9354019165039" transform="matrix(1,0,0,1,-90.9000015258789,-89)"></rect><text joint-selector="text" id="v-1929" font-size="24px" xml:space="preserve" y="0.8em" fill="#707070" text-anchor="middle" pointer-events="none" font-family="Open Sans" font-weight="normal" transform="matrix(1,0,0,1,0,-82.0999984741211)"><tspan  dy="0">Provides</tspan><tspan dy="1.2em" x="0" >databases with</tspan><tspan dy="1.2em" x="0" >ungraded exam</tspan><tspan dy="1.2em" x="0" >questions and</tspan><tspan dy="1.2em" x="0" >graded exam</tspan><tspan dy="1.2em" x="0" >database</tspan></text></g><g id="v-1928"  label-idx="1" cursor="move" transform="matrix(1,0,0,1,973.8125,1024.9984130859375)" style="cursor: default; opacity: 1;"><rect joint-selector="rect" id="v-1932" fill="#ffffff" rx="3" ry="3"  width="0" height="0" transform="matrix(1,0,0,1,0,0)" display="none"></rect><text joint-selector="text" id="v-1931" fill="#000000" font-size="14" text-anchor="middle" pointer-events="none"></text></g></g><g  display="none"><g  transform="translate(976, 925)" id="v-1924"><circle  idx="0" r="10"></circle><path  idx="0" d="M16,5.333c-7.732,0-14,4.701-14,10.5c0,1.982,0.741,3.833,2.016,5.414L2,25.667l5.613-1.441c2.339,1.317,5.237,2.107,8.387,2.107c7.732,0,14-4.701,14-10.5C30,10.034,23.732,5.333,16,5.333z" transform="translate(5, -33)"></path><path  idx="0" transform="scale(.8) translate(9.5, -37)" d="M24.778,21.419 19.276,15.917 24.777,10.415 21.949,7.585 16.447,13.087 10.945,7.585 8.117,10.415 13.618,15.917 8.116,21.419 10.946,24.248 16.447,18.746 21.948,24.248z"><title>Remove vertex.</title></path></g></g><g  id="v-1937" display="none"><g  id="v-1925"><path  end="source" d="M 26 0 L 0 13 L 26 26 z"></path></g><g  id="v-1926"><path  end="target" d="M 26 0 L 0 13 L 26 26 z"></path></g></g><g  id="v-1936" display="none"><g  id="v-1923" transform="translate(1351.4753412418047, 983.8517197487253) "><g  event="remove"><circle r="11"></circle><path transform="scale(.8) translate(-16, -16)" d="M24.778,21.419 19.276,15.917 24.777,10.415 21.949,7.585 16.447,13.087 10.945,7.585 8.117,10.415 13.618,15.917 8.116,21.419 10.946,24.248 16.447,18.746 21.948,24.248z"></path><title>Remove link.</title></g><g  event="link:options"><circle r="11" transform="translate(25)"></circle><path fill="white" transform="scale(.55) translate(29, -16)" d="M31.229,17.736c0.064-0.571,0.104-1.148,0.104-1.736s-0.04-1.166-0.104-1.737l-4.377-1.557c-0.218-0.716-0.504-1.401-0.851-2.05l1.993-4.192c-0.725-0.91-1.549-1.734-2.458-2.459l-4.193,1.994c-0.647-0.347-1.334-0.632-2.049-0.849l-1.558-4.378C17.165,0.708,16.588,0.667,16,0.667s-1.166,0.041-1.737,0.105L12.707,5.15c-0.716,0.217-1.401,0.502-2.05,0.849L6.464,4.005C5.554,4.73,4.73,5.554,4.005,6.464l1.994,4.192c-0.347,0.648-0.632,1.334-0.849,2.05l-4.378,1.557C0.708,14.834,0.667,15.412,0.667,16s0.041,1.165,0.105,1.736l4.378,1.558c0.217,0.715,0.502,1.401,0.849,2.049l-1.994,4.193c0.725,0.909,1.549,1.733,2.459,2.458l4.192-1.993c0.648,0.347,1.334,0.633,2.05,0.851l1.557,4.377c0.571,0.064,1.148,0.104,1.737,0.104c0.588,0,1.165-0.04,1.736-0.104l1.558-4.377c0.715-0.218,1.399-0.504,2.049-0.851l4.193,1.993c0.909-0.725,1.733-1.549,2.458-2.458l-1.993-4.193c0.347-0.647,0.633-1.334,0.851-2.049L31.229,17.736zM16,20.871c-2.69,0-4.872-2.182-4.872-4.871c0-2.69,2.182-4.872,4.872-4.872c2.689,0,4.871,2.182,4.871,4.872C20.871,18.689,18.689,20.871,16,20.871z"></path><title>Link options.</title></g></g></g></g><!--z-index:31--><g   id="j_80" ><path  stroke="#707070" d="M 1841 1094 L 2130 1182 C 2136.6666666666665 1184 2143 1184 2149 1182 L 2451 1078" id="v-1951" stroke-width="2" stroke-dasharray="30 30" fill="none" style="opacity: 1;"></path><path  fill="black" stroke="black" d="M 0 0 0 0" transform="matrix(0.9564061760902405,0.29203975200653076,-0.29203975200653076,0.9564061760902405,1841,1093.699951171875)"></path><path  fill="#707070" stroke="#707070" d="M 20 0 L 0 10 L 20 20 z" id="v-1953" transform="matrix(-0.9452805519104004,0.32625851035118103,-0.32625851035118103,-0.9452805519104004,2454.262451171875,1087.11279296875)" style="opacity: 1;"></path><path  d="M 1841 1094 L 2130 1182 C 2136.6666666666665 1184 2143 1184 2149 1182 L 2451 1078" id="v-1952" fill="none" style="cursor: default;"></path><g ><g id="v-1945"  label-idx="0" cursor="move" transform="matrix(1,0,0,1,2148.048095703125,1182.2996826171875)" style="cursor: default; opacity: 1;"><rect joint-selector="rect" id="v-1948" fill="#ffffff" rx="3" ry="3" pointer-events="none" width="180.9017791748047" height="149.13541412353516" transform="matrix(1,0,0,1,-90.5,-74.5999984741211)"></rect><text joint-selector="text" id="v-1947" font-size="24px" xml:space="preserve" y="0.8em" fill="#707070" text-anchor="middle" pointer-events="none" font-family="Open Sans" font-weight="normal" transform="matrix(1,0,0,1,0,-67.69999694824219)"><tspan  dy="0">Prompt LLM for</tspan><tspan dy="1.2em" x="0" >grading, test</tspan><tspan dy="1.2em" x="0" >generation and</tspan><tspan dy="1.2em" x="0" >feedback</tspan><tspan dy="1.2em" x="0" >generation</tspan></text></g><g id="v-1946"  label-idx="1" cursor="move" transform="matrix(1,0,0,1,2138.048095703125,1266.2996826171875)" style="cursor: default; opacity: 1;"><rect joint-selector="rect" id="v-1950" fill="#ffffff" rx="3" ry="3"  width="0" height="0" transform="matrix(1,0,0,1,0,0)" display="none"></rect><text joint-selector="text" id="v-1949" fill="#000000" font-size="14" text-anchor="middle" pointer-events="none"></text></g></g><g  display="none"><g  transform="translate(2140, 1185)" id="v-1942"><circle  idx="0" r="10"></circle><path  idx="0" d="M16,5.333c-7.732,0-14,4.701-14,10.5c0,1.982,0.741,3.833,2.016,5.414L2,25.667l5.613-1.441c2.339,1.317,5.237,2.107,8.387,2.107c7.732,0,14-4.701,14-10.5C30,10.034,23.732,5.333,16,5.333z" transform="translate(5, -33)"></path><path  idx="0" transform="scale(.8) translate(9.5, -37)" d="M24.778,21.419 19.276,15.917 24.777,10.415 21.949,7.585 16.447,13.087 10.945,7.585 8.117,10.415 13.618,15.917 8.116,21.419 10.946,24.248 16.447,18.746 21.948,24.248z"><title>Remove vertex.</title></path></g></g><g  id="v-1955" display="none"><g  id="v-1943"><path  end="source" d="M 26 0 L 0 13 L 26 26 z"></path></g><g  id="v-1944"><path  end="target" d="M 26 0 L 0 13 L 26 26 z"></path></g></g><g  id="v-1954" display="none"><g  id="v-1941" transform="translate(1879.2653513208447, 1105.6517332741673) "><g  event="remove"><circle r="11"></circle><path transform="scale(.8) translate(-16, -16)" d="M24.778,21.419 19.276,15.917 24.777,10.415 21.949,7.585 16.447,13.087 10.945,7.585 8.117,10.415 13.618,15.917 8.116,21.419 10.946,24.248 16.447,18.746 21.948,24.248z"></path><title>Remove link.</title></g><g  event="link:options"><circle r="11" transform="translate(25)"></circle><path fill="white" transform="scale(.55) translate(29, -16)" d="M31.229,17.736c0.064-0.571,0.104-1.148,0.104-1.736s-0.04-1.166-0.104-1.737l-4.377-1.557c-0.218-0.716-0.504-1.401-0.851-2.05l1.993-4.192c-0.725-0.91-1.549-1.734-2.458-2.459l-4.193,1.994c-0.647-0.347-1.334-0.632-2.049-0.849l-1.558-4.378C17.165,0.708,16.588,0.667,16,0.667s-1.166,0.041-1.737,0.105L12.707,5.15c-0.716,0.217-1.401,0.502-2.05,0.849L6.464,4.005C5.554,4.73,4.73,5.554,4.005,6.464l1.994,4.192c-0.347,0.648-0.632,1.334-0.849,2.05l-4.378,1.557C0.708,14.834,0.667,15.412,0.667,16s0.041,1.165,0.105,1.736l4.378,1.558c0.217,0.715,0.502,1.401,0.849,2.049l-1.994,4.193c0.725,0.909,1.549,1.733,2.459,2.458l4.192-1.993c0.648,0.347,1.334,0.633,2.05,0.851l1.557,4.377c0.571,0.064,1.148,0.104,1.737,0.104c0.588,0,1.165-0.04,1.736-0.104l1.558-4.377c0.715-0.218,1.399-0.504,2.049-0.851l4.193,1.993c0.909-0.725,1.733-1.549,2.458-2.458l-1.993-4.193c0.347-0.647,0.633-1.334,0.851-2.049L31.229,17.736zM16,20.871c-2.69,0-4.872-2.182-4.872-4.871c0-2.69,2.182-4.872,4.872-4.872c2.689,0,4.871,2.182,4.871,4.872C20.871,18.689,18.689,20.871,16,20.871z"></path><title>Link options.</title></g></g></g></g><!--z-index:32--><g   id="j_81" ><path  stroke="#707070" d="M 2451 941 L 2096 848 C 2089.333333333333 845.9999999999999 2083 846.3333333333333 2077 849 L 1841 939" id="v-1969" stroke-width="2" stroke-dasharray="30 30" fill="none" style="opacity: 1;"></path><path  fill="black" stroke="black" d="M 0 0 0 0" transform="matrix(-0.9671805500984192,-0.25409018993377686,0.25409018993377686,-0.9671805500984192,2451,940.8900146484375)"></path><path  fill="#707070" stroke="#707070" d="M 20 0 L 0 10 L 20 20 z" id="v-1971" transform="matrix(0.9338565468788147,-0.3576478064060211,0.3576478064060211,0.9338565468788147,1837.423583984375,929.491455078125)" style="opacity: 1;"></path><path  d="M 2451 941 L 2096 848 C 2089.333333333333 845.9999999999999 2083 846.3333333333333 2077 849 L 1841 939" id="v-1970" fill="none" style="cursor: default;"></path><g ><g id="v-1963"  label-idx="0" cursor="move" transform="matrix(1,0,0,1,2141.927490234375,860.03173828125)" style="cursor: default; opacity: 1;"><rect joint-selector="rect" id="v-1966" fill="#ffffff" rx="3" ry="3" pointer-events="none" width="178.0303192138672" height="149.13541412353516" transform="matrix(1,0,0,1,-89,-74.5999984741211)"></rect><text joint-selector="text" id="v-1965" font-size="24px" xml:space="preserve" y="0.8em" fill="#707070" text-anchor="middle" pointer-events="none" font-family="Open Sans" font-weight="normal" transform="matrix(1,0,0,1,0,-67.69999694824219)"><tspan  dy="0">Return returns</tspan><tspan dy="1.2em" x="0" >grading results,</tspan><tspan dy="1.2em" x="0" >test generation</tspan><tspan dy="1.2em" x="0" >and feedback</tspan><tspan dy="1.2em" x="0" >generation</tspan></text></g><g id="v-1964"  label-idx="1" cursor="move" transform="matrix(1,0,0,1,2131.927490234375,944.03173828125)" style="cursor: default; opacity: 1;"><rect joint-selector="rect" id="v-1968" fill="#ffffff" rx="3" ry="3"  width="0" height="0" transform="matrix(1,0,0,1,0,0)" display="none"></rect><text joint-selector="text" id="v-1967" fill="#000000" font-size="14" text-anchor="middle" pointer-events="none"></text></g></g><g  display="none"><g  transform="translate(2086, 845)" id="v-1960"><circle  idx="0" r="10"></circle><path  idx="0" d="M16,5.333c-7.732,0-14,4.701-14,10.5c0,1.982,0.741,3.833,2.016,5.414L2,25.667l5.613-1.441c2.339,1.317,5.237,2.107,8.387,2.107c7.732,0,14-4.701,14-10.5C30,10.034,23.732,5.333,16,5.333z" transform="translate(5, -33)"></path><path  idx="0" transform="scale(.8) translate(9.5, -37)" d="M24.778,21.419 19.276,15.917 24.777,10.415 21.949,7.585 16.447,13.087 10.945,7.585 8.117,10.415 13.618,15.917 8.116,21.419 10.946,24.248 16.447,18.746 21.948,24.248z"><title>Remove vertex.</title></path></g></g><g  id="v-1973" display="none"><g  id="v-1961"><path  end="source" d="M 26 0 L 0 13 L 26 26 z"></path></g><g  id="v-1962"><path  end="target" d="M 26 0 L 0 13 L 26 26 z"></path></g></g><g  id="v-1972" display="none"><g  id="v-1959" transform="translate(2412.3057472029914, 930.8631957461357) "><g  event="remove"><circle r="11"></circle><path transform="scale(.8) translate(-16, -16)" d="M24.778,21.419 19.276,15.917 24.777,10.415 21.949,7.585 16.447,13.087 10.945,7.585 8.117,10.415 13.618,15.917 8.116,21.419 10.946,24.248 16.447,18.746 21.948,24.248z"></path><title>Remove link.</title></g><g  event="link:options"><circle r="11" transform="translate(25)"></circle><path fill="white" transform="scale(.55) translate(29, -16)" d="M31.229,17.736c0.064-0.571,0.104-1.148,0.104-1.736s-0.04-1.166-0.104-1.737l-4.377-1.557c-0.218-0.716-0.504-1.401-0.851-2.05l1.993-4.192c-0.725-0.91-1.549-1.734-2.458-2.459l-4.193,1.994c-0.647-0.347-1.334-0.632-2.049-0.849l-1.558-4.378C17.165,0.708,16.588,0.667,16,0.667s-1.166,0.041-1.737,0.105L12.707,5.15c-0.716,0.217-1.401,0.502-2.05,0.849L6.464,4.005C5.554,4.73,4.73,5.554,4.005,6.464l1.994,4.192c-0.347,0.648-0.632,1.334-0.849,2.05l-4.378,1.557C0.708,14.834,0.667,15.412,0.667,16s0.041,1.165,0.105,1.736l4.378,1.558c0.217,0.715,0.502,1.401,0.849,2.049l-1.994,4.193c0.725,0.909,1.549,1.733,2.459,2.458l4.192-1.993c0.648,0.347,1.334,0.633,2.05,0.851l1.557,4.377c0.571,0.064,1.148,0.104,1.737,0.104c0.588,0,1.165-0.04,1.736-0.104l1.558-4.377c0.715-0.218,1.399-0.504,2.049-0.851l4.193,1.993c0.909-0.725,1.733-1.549,2.458-2.458l-1.993-4.193c0.347-0.647,0.633-1.334,0.851-2.049L31.229,17.736zM16,20.871c-2.69,0-4.872-2.182-4.872-4.871c0-2.69,2.182-4.872,4.872-4.872c2.689,0,4.871,2.182,4.871,4.872C20.871,18.689,18.689,20.871,16,20.871z"></path><title>Link options.</title></g></g></g></g><!--z-index:33--><g   id="j_82" ><path  stroke="#707070" d="M 467 1155 L 804 1585" id="v-1986" stroke-width="2" stroke-dasharray="30 30" fill="none" style="opacity: 1;"></path><path  fill="black" stroke="black" d="M 0 0 0 0" transform="matrix(0.6161017417907715,0.7876665592193604,-0.7876665592193604,0.6161017417907715,467.3299865722656,1155)"></path><path  fill="#707070" stroke="#707070" d="M 20 0 L 0 10 L 20 20 z" id="v-1988" transform="matrix(-0.616101861000061,-0.7876664996147156,0.7876664996147156,-0.616101861000061,795.7933349609375,1591.1610107421875)" style="opacity: 1;"></path><path  d="M 467 1155 L 804 1585" id="v-1987" fill="none" style="cursor: default;"></path><g ><g id="v-1980"  label-idx="0" cursor="move" transform="matrix(1,0,0,1,635.5,1370)" style="cursor: default; opacity: 1;"><rect joint-selector="rect" id="v-1983" fill="#ffffff" rx="3" ry="3" pointer-events="none" width="200.6539306640625" height="206.73542022705078" transform="matrix(1,0,0,1,-100.30000305175781,-103.4000015258789)"></rect><text joint-selector="text" id="v-1982" font-size="24px" xml:space="preserve" y="0.8em" fill="#707070" text-anchor="middle" pointer-events="none" font-family="Open Sans" font-weight="normal" transform="matrix(1,0,0,1,0,-96.5)"><tspan  dy="0">Reads new</tspan><tspan dy="1.2em" x="0" >graded Q&amp;A</tspan><tspan dy="1.2em" x="0" >tuples from the</tspan><tspan dy="1.2em" x="0" >database via high</tspan><tspan dy="1.2em" x="0" >watermark</tspan><tspan dy="1.2em" x="0" >(timestamp</tspan><tspan dy="1.2em" x="0" >column)</tspan></text></g><g id="v-1981"  label-idx="1" cursor="move" transform="matrix(1,0,0,1,625.5,1482.800048828125)" style="cursor: default; opacity: 1;"><rect joint-selector="rect" id="v-1985" fill="#ffffff" rx="3" ry="3"  width="0" height="0" transform="matrix(1,0,0,1,0,0)" display="none"></rect><text joint-selector="text" id="v-1984" fill="#000000" font-size="14" text-anchor="middle" pointer-events="none"></text></g></g><g  display="none"></g><g  id="v-1990" display="none"><g  id="v-1978"><path  end="source" d="M 26 0 L 0 13 L 26 26 z"></path></g><g  id="v-1979"><path  end="target" d="M 26 0 L 0 13 L 26 26 z"></path></g></g><g  id="v-1989" display="none"><g  id="v-1977" transform="translate(491.6740407097726, 1186.4831973448136) "><g  event="remove"><circle r="11"></circle><path transform="scale(.8) translate(-16, -16)" d="M24.778,21.419 19.276,15.917 24.777,10.415 21.949,7.585 16.447,13.087 10.945,7.585 8.117,10.415 13.618,15.917 8.116,21.419 10.946,24.248 16.447,18.746 21.948,24.248z"></path><title>Remove link.</title></g><g  event="link:options"><circle r="11" transform="translate(25)"></circle><path fill="white" transform="scale(.55) translate(29, -16)" d="M31.229,17.736c0.064-0.571,0.104-1.148,0.104-1.736s-0.04-1.166-0.104-1.737l-4.377-1.557c-0.218-0.716-0.504-1.401-0.851-2.05l1.993-4.192c-0.725-0.91-1.549-1.734-2.458-2.459l-4.193,1.994c-0.647-0.347-1.334-0.632-2.049-0.849l-1.558-4.378C17.165,0.708,16.588,0.667,16,0.667s-1.166,0.041-1.737,0.105L12.707,5.15c-0.716,0.217-1.401,0.502-2.05,0.849L6.464,4.005C5.554,4.73,4.73,5.554,4.005,6.464l1.994,4.192c-0.347,0.648-0.632,1.334-0.849,2.05l-4.378,1.557C0.708,14.834,0.667,15.412,0.667,16s0.041,1.165,0.105,1.736l4.378,1.558c0.217,0.715,0.502,1.401,0.849,2.049l-1.994,4.193c0.725,0.909,1.549,1.733,2.459,2.458l4.192-1.993c0.648,0.347,1.334,0.633,2.05,0.851l1.557,4.377c0.571,0.064,1.148,0.104,1.737,0.104c0.588,0,1.165-0.04,1.736-0.104l1.558-4.377c0.715-0.218,1.399-0.504,2.049-0.851l4.193,1.993c0.909-0.725,1.733-1.549,2.458-2.458l-1.993-4.193c0.347-0.647,0.633-1.334,0.851-2.049L31.229,17.736zM16,20.871c-2.69,0-4.872-2.182-4.872-4.871c0-2.69,2.182-4.872,4.872-4.872c2.689,0,4.871,2.182,4.871,4.872C20.871,18.689,18.689,20.871,16,20.871z"></path><title>Link options.</title></g></g></g></g><!--z-index:34--><g   id="j_83" ><path  stroke="#707070" d="M 1068 1585 L 1469 1175" id="v-2003" stroke-width="2" stroke-dasharray="30 30" fill="none" style="opacity: 1;"></path><path  fill="black" stroke="black" d="M 0 0 0 0" transform="matrix(0.6995193958282471,-0.7146136164665222,0.7146136164665222,0.6995193958282471,1067.8299560546875,1585)"></path><path  fill="#707070" stroke="#707070" d="M 20 0 L 0 10 L 20 20 z" id="v-2005" transform="matrix(-0.6995193958282471,0.7146136164665222,-0.7146136164665222,-0.6995193958282471,1476.316162109375,1181.9951171875)" style="opacity: 1;"></path><path  d="M 1068 1585 L 1469 1175" id="v-2004" fill="none" style="cursor: default;"></path><g ><g id="v-1997"  label-idx="0" cursor="move" transform="matrix(1,0,0,1,1268.5,1380)" style="cursor: default; opacity: 1;"><rect joint-selector="rect" id="v-2000" fill="#ffffff" rx="3" ry="3" pointer-events="none" width="180.2926788330078" height="62.73539733886719" transform="matrix(1,0,0,1,-90.0999984741211,-31.399999618530273)"></rect><text joint-selector="text" id="v-1999" font-size="24px" xml:space="preserve" y="0.8em" fill="#707070" text-anchor="middle" pointer-events="none" font-family="Open Sans" font-weight="normal" transform="matrix(1,0,0,1,0,-24.5)"><tspan  dy="0">Provide context</tspan><tspan dy="1.2em" x="0" >data</tspan></text></g><g id="v-1998"  label-idx="1" cursor="move" transform="matrix(1,0,0,1,1258.5,1420.800048828125)" style="cursor: default; opacity: 1;"><rect joint-selector="rect" id="v-2002" fill="#ffffff" rx="3" ry="3"  width="0" height="0" transform="matrix(1,0,0,1,0,0)" display="none"></rect><text joint-selector="text" id="v-2001" fill="#000000" font-size="14" text-anchor="middle" pointer-events="none"></text></g></g><g  display="none"></g><g  id="v-2007" display="none"><g  id="v-1995"><path  end="source" d="M 26 0 L 0 13 L 26 26 z"></path></g><g  id="v-1996"><path  end="target" d="M 26 0 L 0 13 L 26 26 z"></path></g></g><g  id="v-2006" display="none"><g  id="v-1994" transform="translate(1095.968666922873, 1556.4036073855914) "><g  event="remove"><circle r="11"></circle><path transform="scale(.8) translate(-16, -16)" d="M24.778,21.419 19.276,15.917 24.777,10.415 21.949,7.585 16.447,13.087 10.945,7.585 8.117,10.415 13.618,15.917 8.116,21.419 10.946,24.248 16.447,18.746 21.948,24.248z"></path><title>Remove link.</title></g><g  event="link:options"><circle r="11" transform="translate(25)"></circle><path fill="white" transform="scale(.55) translate(29, -16)" d="M31.229,17.736c0.064-0.571,0.104-1.148,0.104-1.736s-0.04-1.166-0.104-1.737l-4.377-1.557c-0.218-0.716-0.504-1.401-0.851-2.05l1.993-4.192c-0.725-0.91-1.549-1.734-2.458-2.459l-4.193,1.994c-0.647-0.347-1.334-0.632-2.049-0.849l-1.558-4.378C17.165,0.708,16.588,0.667,16,0.667s-1.166,0.041-1.737,0.105L12.707,5.15c-0.716,0.217-1.401,0.502-2.05,0.849L6.464,4.005C5.554,4.73,4.73,5.554,4.005,6.464l1.994,4.192c-0.347,0.648-0.632,1.334-0.849,2.05l-4.378,1.557C0.708,14.834,0.667,15.412,0.667,16s0.041,1.165,0.105,1.736l4.378,1.558c0.217,0.715,0.502,1.401,0.849,2.049l-1.994,4.193c0.725,0.909,1.549,1.733,2.459,2.458l4.192-1.993c0.648,0.347,1.334,0.633,2.05,0.851l1.557,4.377c0.571,0.064,1.148,0.104,1.737,0.104c0.588,0,1.165-0.04,1.736-0.104l1.558-4.377c0.715-0.218,1.399-0.504,2.049-0.851l4.193,1.993c0.909-0.725,1.733-1.549,2.458-2.458l-1.993-4.193c0.347-0.647,0.633-1.334,0.851-2.049L31.229,17.736zM16,20.871c-2.69,0-4.872-2.182-4.872-4.871c0-2.69,2.182-4.872,4.872-4.872c2.689,0,4.871,2.182,4.871,4.872C20.871,18.689,18.689,20.871,16,20.871z"></path><title>Link options.</title></g></g></g></g><!--z-index:35--><g   id="j_84" ><path  stroke="#707070" d="M 575 1078 L 956 1202 C 962.6666666666666 1204 969.3333333333333 1204 976 1202 L 1391 1087" id="v-2021" stroke-width="2" stroke-dasharray="30 30" fill="none" style="opacity: 1;"></path><path  fill="black" stroke="black" d="M 0 0 0 0" transform="matrix(0.9511234164237976,0.3088110387325287,-0.3088110387325287,0.9511234164237976,575,1078.050048828125)"></path><path  fill="#707070" stroke="#707070" d="M 20 0 L 0 10 L 20 20 z" id="v-2023" transform="matrix(-0.9637313485145569,0.26687419414520264,-0.26687419414520264,-0.9637313485145569,1393.668701171875,1096.9473876953125)" style="opacity: 1;"></path><path  d="M 575 1078 L 956 1202 C 962.6666666666666 1204 969.3333333333333 1204 976 1202 L 1391 1087" id="v-2022" fill="none" style="cursor: default;"></path><g ><g id="v-2015"  label-idx="0" cursor="move" transform="matrix(1,0,0,1,980.6626586914062,1200.7078857421875)" style="cursor: default; opacity: 1;"><rect joint-selector="rect" id="v-2018" fill="#ffffff" rx="3" ry="3" pointer-events="none" width="176.4640655517578" height="120.33539581298828" transform="matrix(1,0,0,1,-88.19999694824219,-60.20000076293945)"></rect><text joint-selector="text" id="v-2017" font-size="24px" xml:space="preserve" y="0.8em" fill="#707070" text-anchor="middle" pointer-events="none" font-family="Open Sans" font-weight="normal" transform="matrix(1,0,0,1,0,-53.29999923706055)"><tspan  dy="0">Read ungraded</tspan><tspan dy="1.2em" x="0" >submission for</tspan><tspan dy="1.2em" x="0" >automatic</tspan><tspan dy="1.2em" x="0" >grading</tspan></text></g><g id="v-2016"  label-idx="1" cursor="move" transform="matrix(1,0,0,1,970.6626586914062,1270.3079833984375)" style="cursor: default; opacity: 1;"><rect joint-selector="rect" id="v-2020" fill="#ffffff" rx="3" ry="3"  width="0" height="0" transform="matrix(1,0,0,1,0,0)" display="none"></rect><text joint-selector="text" id="v-2019" fill="#000000" font-size="14" text-anchor="middle" pointer-events="none"></text></g></g><g  display="none"><g  transform="translate(966, 1205)" id="v-2012"><circle  idx="0" r="10"></circle><path  idx="0" d="M16,5.333c-7.732,0-14,4.701-14,10.5c0,1.982,0.741,3.833,2.016,5.414L2,25.667l5.613-1.441c2.339,1.317,5.237,2.107,8.387,2.107c7.732,0,14-4.701,14-10.5C30,10.034,23.732,5.333,16,5.333z" transform="translate(5, -33)"></path><path  idx="0" transform="scale(.8) translate(9.5, -37)" d="M24.778,21.419 19.276,15.917 24.777,10.415 21.949,7.585 16.447,13.087 10.945,7.585 8.117,10.415 13.618,15.917 8.116,21.419 10.946,24.248 16.447,18.746 21.948,24.248z"><title>Remove vertex.</title></path></g></g><g  id="v-2025" display="none"><g  id="v-2013"><path  end="source" d="M 26 0 L 0 13 L 26 26 z"></path></g><g  id="v-2014"><path  end="target" d="M 26 0 L 0 13 L 26 26 z"></path></g></g><g  id="v-2024" display="none"><g  id="v-2011" transform="translate(613.0362239290039, 1090.3792434834552) "><g  event="remove"><circle r="11"></circle><path transform="scale(.8) translate(-16, -16)" d="M24.778,21.419 19.276,15.917 24.777,10.415 21.949,7.585 16.447,13.087 10.945,7.585 8.117,10.415 13.618,15.917 8.116,21.419 10.946,24.248 16.447,18.746 21.948,24.248z"></path><title>Remove link.</title></g><g  event="link:options"><circle r="11" transform="translate(25)"></circle><path fill="white" transform="scale(.55) translate(29, -16)" d="M31.229,17.736c0.064-0.571,0.104-1.148,0.104-1.736s-0.04-1.166-0.104-1.737l-4.377-1.557c-0.218-0.716-0.504-1.401-0.851-2.05l1.993-4.192c-0.725-0.91-1.549-1.734-2.458-2.459l-4.193,1.994c-0.647-0.347-1.334-0.632-2.049-0.849l-1.558-4.378C17.165,0.708,16.588,0.667,16,0.667s-1.166,0.041-1.737,0.105L12.707,5.15c-0.716,0.217-1.401,0.502-2.05,0.849L6.464,4.005C5.554,4.73,4.73,5.554,4.005,6.464l1.994,4.192c-0.347,0.648-0.632,1.334-0.849,2.05l-4.378,1.557C0.708,14.834,0.667,15.412,0.667,16s0.041,1.165,0.105,1.736l4.378,1.558c0.217,0.715,0.502,1.401,0.849,2.049l-1.994,4.193c0.725,0.909,1.549,1.733,2.459,2.458l4.192-1.993c0.648,0.347,1.334,0.633,2.05,0.851l1.557,4.377c0.571,0.064,1.148,0.104,1.737,0.104c0.588,0,1.165-0.04,1.736-0.104l1.558-4.377c0.715-0.218,1.399-0.504,2.049-0.851l4.193,1.993c0.909-0.725,1.733-1.549,2.458-2.458l-1.993-4.193c0.347-0.647,0.633-1.334,0.851-2.049L31.229,17.736zM16,20.871c-2.69,0-4.872-2.182-4.872-4.871c0-2.69,2.182-4.872,4.872-4.872c2.689,0,4.871,2.182,4.871,4.872C20.871,18.689,18.689,20.871,16,20.871z"></path><title>Link options.</title></g></g></g></g><!--z-index:36--><!--z-index:37--><!--z-index:38--><!--z-index:39--><!--z-index:40--><!--z-index:41--><!--z-index:42--><!--z-index:43--><!--z-index:44--><!--z-index:45--><!--z-index:46--><!--z-index:47--><!--z-index:48--><!--z-index:49--><!--z-index:50--><!--z-index:51--><!--z-index:52--><!--z-index:53--><!--z-index:54--><!--z-index:55--><!--z-index:56--><!--z-index:57--><!--z-index:58--><!--z-index:59--><!--z-index:60--><!--z-index:61--><!--z-index:62--><!--z-index:63--><!--z-index:64--><!--z-index:65--><!--z-index:66--><!--z-index:67--><!--z-index:68--><!--z-index:69--></g><g ></g><g ></g><g ></g></g></svg>